<svg width="73" height="72" viewBox="0 0 73 72" fill="none" xmlns="http://www.w3.org/2000/svg">
<rect x="0.950012" y="0.5" width="71" height="71" rx="35.5" stroke="white"/>
<path d="M36.45 51.3333C40.5166 51.3333 44.4167 49.7178 47.2923 46.8422C50.1679 43.9667 51.7833 40.0666 51.7833 35.9999C51.7833 31.9333 50.1679 28.0332 47.2923 25.1576C44.4167 22.2821 40.5166 20.6666 36.45 20.6666C32.3833 20.6666 28.4832 22.2821 25.6077 25.1576C22.7321 28.0332 21.1167 31.9333 21.1167 35.9999C21.1167 40.0666 22.7321 43.9667 25.6077 46.8422C28.4832 49.7178 32.3833 51.3333 36.45 51.3333ZM36.45 16.8333C38.967 16.8333 41.4594 17.329 43.7848 18.2922C46.1102 19.2554 48.2231 20.6672 50.0029 22.447C51.7827 24.2268 53.1945 26.3397 54.1577 28.6652C55.1209 30.9906 55.6167 33.4829 55.6167 35.9999C55.6167 41.0832 53.5973 45.9584 50.0029 49.5528C46.4084 53.1472 41.5333 55.1666 36.45 55.1666C25.8508 55.1666 17.2833 46.5416 17.2833 35.9999C17.2833 30.9166 19.3027 26.0415 22.8971 22.447C26.4916 18.8526 31.3667 16.8333 36.45 16.8333ZM37.4083 26.4166V36.4791L46.0333 41.5966L44.5958 43.9541L34.5333 37.9166V26.4166H37.4083Z" fill="white"/>
</svg>
