<svg width="51" height="39" viewBox="0 0 51 39" fill="none" xmlns="http://www.w3.org/2000/svg">
<g clip-path="url(#clip0_35_597)">
<g clip-path="url(#clip1_35_597)">
<g clip-path="url(#clip2_35_597)">
<path d="M40.2757 14.0256C40.175 12.8789 40.252 9.76176 43.0871 5.42713C43.3015 5.10004 43.2626 4.65889 42.9963 4.37845C41.8404 3.16099 41.1248 2.39275 40.6229 1.85516C39.9629 1.14633 39.6615 0.823344 39.2205 0.402192C38.9261 0.123399 38.4805 0.118544 38.1829 0.391824C33.2414 4.92089 27.7528 14.2795 28.547 25.7453C29.0124 32.4778 33.6747 37.3645 39.6326 37.3645C45.7467 37.3645 50.7211 32.1258 50.7211 25.6858C50.7211 19.4731 46.0916 14.3783 40.2757 14.0256ZM39.6326 35.7187C34.5162 35.7187 30.5101 31.4741 30.105 25.6263C29.2115 12.731 36.4892 4.35434 38.688 2.13642C38.9024 2.35901 39.1473 2.62093 39.5082 3.00827C39.943 3.47435 40.5382 4.11241 41.4384 5.06391C37.9968 10.6489 38.6461 14.6283 38.9306 15.1988C39.0657 15.4697 39.3426 15.6521 39.6326 15.6521C44.8854 15.6521 49.1586 20.153 49.1586 25.6858C49.1586 31.2178 44.8854 35.7187 39.6326 35.7187Z" fill="#6F3AFA"/>
<path d="M12.5291 14.0254C12.4277 12.8819 12.5024 9.76715 15.3406 5.42693C15.5542 5.09983 15.516 4.65868 15.2498 4.37824C14.0962 3.16317 13.3813 2.39575 12.8801 1.85816C12.2179 1.14777 11.9157 0.823879 11.4748 0.401987C11.1802 0.123193 10.7347 0.119161 10.4371 0.390795C5.49559 4.91987 0.00621164 14.2769 0.798868 25.7451C1.26582 32.4767 5.92887 37.3643 11.8867 37.3643C18.0009 37.3643 22.9753 32.1256 22.9753 25.6856C22.9753 19.4722 18.3458 14.3766 12.5291 14.0254ZM11.8867 35.7185C6.77121 35.7185 2.7627 31.4739 2.35684 25.6253C1.46574 12.7268 8.7434 4.35331 10.9422 2.13621C11.1573 2.3588 11.4031 2.62237 11.7647 3.01053C12.1988 3.47661 12.7931 4.11385 13.6919 5.06371C10.2502 10.6495 10.8995 14.628 11.1841 15.1978C11.3191 15.4686 11.5968 15.6519 11.8867 15.6519C17.1396 15.6519 21.4128 20.1528 21.4128 25.6856C21.4128 31.2176 17.1396 35.7185 11.8867 35.7185Z" fill="#6F3AFA"/>
</g>
</g>
</g>
<defs>
<clipPath id="clip0_35_597">
<rect width="50" height="38" fill="white" transform="translate(0.721558 0.189941)"/>
</clipPath>
<clipPath id="clip1_35_597">
<rect width="50" height="38" fill="white" transform="translate(0.721558 0.189941)"/>
</clipPath>
<clipPath id="clip2_35_597">
<rect width="50" height="38" fill="white" transform="translate(0.721558 0.189941)"/>
</clipPath>
</defs>
</svg>
