<svg width="73" height="72" viewBox="0 0 73 72" fill="none" xmlns="http://www.w3.org/2000/svg">
<rect x="0.625" y="0.5" width="71" height="71" rx="35.5" stroke="white"/>
<path d="M41.875 32.1667L50.6016 27.8043C50.8937 27.6584 51.2183 27.5894 51.5446 27.6041C51.8708 27.6188 52.1879 27.7166 52.4657 27.8883C52.7436 28.0599 52.9729 28.2997 53.1321 28.5849C53.2912 28.8701 53.3748 29.1913 53.375 29.5178V42.4822C53.3748 42.8087 53.2912 43.1299 53.1321 43.4151C52.9729 43.7003 52.7436 43.9401 52.4657 44.1117C52.1879 44.2834 51.8708 44.3812 51.5446 44.3959C51.2183 44.4106 50.8937 44.3416 50.6016 44.1957L41.875 39.8333V32.1667ZM18.875 28.3333C18.875 27.3167 19.2789 26.3416 19.9978 25.6228C20.7166 24.9039 21.6917 24.5 22.7083 24.5H38.0417C39.0583 24.5 40.0334 24.9039 40.7522 25.6228C41.4711 26.3416 41.875 27.3167 41.875 28.3333V43.6667C41.875 44.6833 41.4711 45.6584 40.7522 46.3772C40.0334 47.0961 39.0583 47.5 38.0417 47.5H22.7083C21.6917 47.5 20.7166 47.0961 19.9978 46.3772C19.2789 45.6584 18.875 44.6833 18.875 43.6667V28.3333Z" stroke="white" stroke-width="2" stroke-linecap="round" stroke-linejoin="round"/>
</svg>
