<svg width="73" height="72" viewBox="0 0 73 72" fill="none" xmlns="http://www.w3.org/2000/svg">
<rect x="1.29492" y="0.5" width="71" height="71" rx="35.5" stroke="white"/>
<path d="M54.0449 35.0417C54.0515 37.5715 53.4605 40.067 52.3199 42.3251C50.9676 45.0309 48.8886 47.3068 46.3159 48.8978C43.7431 50.4889 40.7782 51.3322 37.7533 51.3334C35.2235 51.34 32.728 50.7489 30.4699 49.6084L19.5449 53.2501L23.1866 42.3251C22.046 40.067 21.455 37.5715 21.4616 35.0417C21.4628 32.0168 22.3061 29.0519 23.8971 26.4791C25.4882 23.9064 27.7641 21.8274 30.4699 20.4751C32.728 19.3345 35.2235 18.7435 37.7533 18.7501H38.7116C42.7066 18.9705 46.4799 20.6567 49.3091 23.4859C52.1383 26.3151 53.8245 30.0884 54.0449 34.0834V35.0417Z" stroke="white" stroke-width="2" stroke-linecap="round" stroke-linejoin="round"/>
</svg>
