<svg width="73" height="72" viewBox="0 0 73 72" fill="none" xmlns="http://www.w3.org/2000/svg">
<rect x="0.61499" y="0.5" width="71" height="71" rx="35.5" stroke="white"/>
<g clip-path="url(#clip0_420_525)">
<g clip-path="url(#clip1_420_525)">
<g clip-path="url(#clip2_420_525)">
<path d="M35.4586 55.7294L16.1034 36.3724C11.4103 31.6785 11.4587 24.0889 16.2114 19.4538C20.9654 14.8181 28.626 14.8443 33.3423 19.5604L36.1147 22.333L38.8888 19.5604C43.6002 14.845 51.2649 14.8174 56.0193 19.4538C60.7716 24.0901 60.8193 31.6799 56.1256 36.3725L36.7704 55.7294C36.4093 56.0904 35.8193 56.09 35.4586 55.7294ZM17.5068 20.7494C13.4774 24.679 13.4363 31.1136 17.4151 35.0931L36.1144 53.7941L54.8138 35.0931C58.7932 31.1146 58.7526 24.68 54.7236 20.7492C50.6936 16.8193 44.1955 16.841 40.2004 20.8396L36.77 24.2682C36.4038 24.6343 35.8131 24.6226 35.4584 24.268L32.0305 20.8399C28.0342 16.8436 21.5393 16.8171 17.5068 20.7494Z" fill="white"/>
<path d="M40.3388 43.1899L35.6658 32.4982L31.8953 41.3612C31.6278 41.9895 30.7793 42.1152 30.3373 41.5912L26.0047 36.4565H16.5768C16.0678 36.4565 15.655 36.0489 15.655 35.5462C15.655 35.0435 16.0678 34.6358 16.5768 34.6358H26.4364C26.71 34.6358 26.9694 34.7558 27.1446 34.9634L30.783 39.2753L34.8046 29.8222C34.9483 29.4846 35.283 29.2645 35.6545 29.2645C36.0222 29.2645 36.355 29.4804 36.5009 29.8141L41.0198 40.1535L44.6029 28.0977C44.7162 27.7164 45.0666 27.4518 45.4689 27.4438C45.8666 27.4353 46.2321 27.6864 46.3608 28.063L48.6067 34.6357H55.653C56.162 34.6357 56.5748 35.0434 56.5748 35.5461C56.5748 36.0488 56.162 36.4565 55.653 36.4565H47.9449C47.5493 36.4565 47.1978 36.2073 47.0715 35.8371L45.5486 31.3804L42.0698 43.0855C41.9604 43.4536 41.6292 43.7144 41.2415 43.7378C40.855 43.7615 40.4931 43.5428 40.3388 43.1899Z" fill="white"/>
</g>
</g>
</g>
<defs>
<clipPath id="clip0_420_525">
<rect width="47" height="40" fill="white" transform="translate(12.615 16)"/>
</clipPath>
<clipPath id="clip1_420_525">
<rect width="47" height="40" fill="white" transform="translate(12.615 16)"/>
</clipPath>
<clipPath id="clip2_420_525">
<rect width="47" height="40" fill="white" transform="translate(12.615 16)"/>
</clipPath>
</defs>
</svg>
